<svg xmlns="http://www.w3.org/2000/svg" width="32" height="32"><path fill="#747A88" d="M16 3C8.832 3 3 8.832 3 16s5.832 13 13 13 13-5.832 13-13S23.168 3 16 3zm3.783 2.684-3.708 7.881-3.73-7.928A10.937 10.937 0 0 1 16 5c1.331 0 2.601.25 3.783.684zm-9.257.788L14.539 15h3.072l3.979-8.457a11.075 11.075 0 0 1 3.357 3.082L19.836 21.56 17.691 17h-3.232l-2.145 4.56L7.148 9.497a11.071 11.071 0 0 1 3.378-3.025zM5 16c0-1.542.322-3.01.898-4.343l6.268 14.64C7.988 24.736 5 20.716 5 16zm7.276 10.337 3.799-8.073 3.777 8.027A10.93 10.93 0 0 1 16 27c-1.309 0-2.559-.242-3.724-.663zm7.735-.105 6.164-14.397A10.92 10.92 0 0 1 27 16c0 4.649-2.904 8.625-6.989 10.232z"/></svg>