<svg xmlns="http://www.w3.org/2000/svg" width="18" height="20" fill="none"><path fill="#47AE58" d="M16.843 5.31h-.222l-.563-1.59a.515.515 0 0 0-.328-.318l-.726-.234a.515.515 0 1 0-.317.98l.484.157.356 1.004h-.153a.258.258 0 0 0-.235.152l-.417.928a.258.258 0 0 0-.023.12l.157 2.835c.008.136.12.243.258.243h.16v6.145c0 .686-.39 1.282-.958 1.58v-3.833a1.54 1.54 0 0 0-.362-.992V1.92c0-1.058-.861-1.92-1.92-1.92H3.157c-1.059 0-1.92.862-1.92 1.92v10.567a1.539 1.539 0 0 0-.362.992v4.975c0 .852.694 1.546 1.546 1.546H12.77c.77 0 1.41-.567 1.527-1.305a3.076 3.076 0 0 0 2.266-2.963V9.587h.28a.258.258 0 0 0 .258-.258V5.567a.258.258 0 0 0-.258-.258Zm-9.248 8.742a2.186 2.186 0 0 1-2.185-2.185c0-1.207 2.185-3.517 2.185-3.517s2.186 2.31 2.186 3.517a2.186 2.186 0 0 1-2.186 2.185Zm4.298-8.537H3.298V2.062h8.595v3.453Z"/></svg>