<svg xmlns="http://www.w3.org/2000/svg" width="501.28" height="75.365" class="css-1j8o68f" viewBox="0 0 230 34.579"><g fill="#3b3c98"><path d="M18 23c-1.472 0-2.75.81-3.444 2A3.962 3.962 0 0 0 14 27c0 2.204 1.794 4 4 4s4-1.796 4-4c0-.73-.21-1.41-.556-2-.694-1.19-1.97-2-3.444-2zM46 23c-1.472 0-2.75.81-3.444 2A3.962 3.962 0 0 0 42 27c0 2.204 1.794 4 4 4s4-1.796 4-4c0-.73-.21-1.41-.556-2-.694-1.19-1.97-2-3.444-2z"/><path d="M58 19v-2l-12-3.43L32 5H10v2h12v2H0v2h24v2H4v2h10v2h-4v2H2v2h10v2h-2v2H4v2h8c0-.704.144-1.372.368-2 .828-2.324 3.024-4 5.632-4 2.61 0 4.804 1.676 5.632 4 .222.628.368 1.296.368 2h16c0-.704.144-1.372.368-2 .828-2.324 3.024-4 5.632-4 2.61 0 4.804 1.676 5.632 4 .222.628.368 1.296.368 2h6v-2h2v-6h-2z"/></g><path fill="#111" d="M103.885 33.26c-1.319.534-2.583.887-3.792 1.06s-2.552.26-4.028.26c-2.67 0-5.01-.425-7.02-1.273s-3.682-2.033-5.017-3.557-2.34-3.337-3.015-5.44S80 19.895 80 17.383s.345-4.837 1.036-6.973 1.704-3.973 3.04-5.511 2.99-2.74 4.97-3.604S93.285 0 95.828 0c1.476 0 2.811.141 4.005.424s2.355.675 3.486 1.178l-1.932 6.265c-.628-.282-1.327-.533-2.096-.753s-1.688-.33-2.756-.33c-5.59 0-8.386 3.533-8.386 10.6 0 3.549.723 6.171 2.167 7.867s3.675 2.544 6.69 2.544c1.005 0 1.892-.07 2.662-.212s1.53-.353 2.285-.636zm15.594-9.987c-.314-.063-.644-.103-.99-.118s-.643-.024-.895-.024c-1.319 0-2.386.204-3.203.613s-1.225 1.115-1.225 2.12c0 .628.15 1.122.448 1.484s.667.628 1.107.8.903.275 1.39.307.902.047 1.248.047c.628 0 1.334-.079 2.12-.236v-4.993zm-2.45-5.182c.251 0 .589.007 1.013.023s.903.04 1.437.07c-.032-1.224-.464-2.017-1.296-2.378s-1.908-.542-3.227-.542c-.722 0-1.555.086-2.497.259s-1.963.432-3.062.777l-.754-2.59c-.094-.346-.228-.849-.4-1.508s-.29-1.178-.354-1.555c1.57-.534 3.055-.919 4.452-1.154s2.662-.353 3.793-.353c3.329 0 5.904.793 7.726 2.379s2.732 4.122 2.732 7.608V32.93c-1.225.346-2.638.683-4.24 1.013s-3.329.495-5.182.495c-1.633 0-3.117-.141-4.452-.424s-2.48-.754-3.439-1.413-1.696-1.524-2.214-2.591-.777-2.372-.777-3.91.321-2.827.965-3.864 1.476-1.86 2.497-2.473 2.167-1.044 3.44-1.296 2.551-.376 3.839-.376zm22.613-7.774c.377-.251.903-.494 1.578-.73s1.437-.353 2.285-.353c.722 0 1.311.031 1.767.094s.683.078.683.047v6.266a16.045 16.045 0 0 0-2.12-.047c-.597.062-1.217.165-1.861.306s-1.233.4-1.767.777c-.628.44-1.075 1.037-1.342 1.79s-.4 1.79-.4 3.11v12.531h-7.067V15.405h-3.816l3.015-5.983h7.867v1.837c.157-.125.298-.25.424-.376.126-.095.251-.197.377-.307s.251-.196.377-.259zm10.93-9.94h7.726v12.72h10.034V.377h7.726V34.06h-7.726V19.692c-.188.032-.36.063-.518.094l-.565.095h-7.915l-1.036-.189v14.369h-7.726V.377zm30.857 9.092h7.16v12.814c0 1.1.095 2.018.284 2.756s.47 1.32.848 1.743.84.723 1.39.895 1.2.26 1.954.26c.911 0 1.728-.048 2.45-.142l-.094-.848V9.47h7.16v23.273c-1.161.408-2.551.77-4.169 1.083s-3.274.472-4.97.472c-1.602 0-3.133-.126-4.593-.377s-2.74-.786-3.84-1.602-1.97-2.002-2.614-3.557-.966-3.651-.966-6.29V9.47zM215.49.99v8.15l-.236.99c0-.032.314-.134.943-.306s1.491-.26 2.59-.26c1.634 0 3.141.244 4.523.73s2.568 1.233 3.557 2.238 1.759 2.285 2.309 3.84.824 3.415.824 5.582c0 1.696-.196 3.29-.589 4.782s-1.044 2.803-1.955 3.934-2.104 2.026-3.58 2.685-3.298.99-5.465.99h-1.249l-2.214-.095-2.897-.282-3.298-.566V6.784h-3.91l3.015-5.748zm2.261 27.042c.754 0 1.469-.094 2.144-.283s1.256-.518 1.743-.989.88-1.1 1.178-1.884.447-1.76.447-2.921-.141-2.16-.424-2.992-.66-1.507-1.13-2.026-1.029-.895-1.673-1.13-1.327-.354-2.05-.354c-.376 0-.816.032-1.318.095s-.895.125-1.178.188v12.107c.345.063.699.11 1.06.142s.762.047 1.201.047z"/></svg>