<svg xmlns="http://www.w3.org/2000/svg" width="20" height="20" fill="none"><path fill="#5D5FC0" d="M10 0C4.494 0 0 4.494 0 10s4.494 10 10 10 10-4.494 10-10S15.506 0 10 0Zm0 2.383c3.802 0 6.962 2.8 7.527 6.445h-2.032c-1.288 0-2.512-.517-3.358-1.418a2.932 2.932 0 0 0-4.274 0c-.846.901-2.07 1.418-3.358 1.418H2.473C3.038 5.182 6.198 2.383 10 2.383Zm0 9.96a1.76 1.76 0 0 1-1.758-1.757c0-.97.789-1.758 1.758-1.758.97 0 1.758.789 1.758 1.758A1.76 1.76 0 0 1 10 12.344Zm-7.093.434c.67-.263 1.155-.433 1.82-.433a3.519 3.519 0 0 1 3.475 4.042h-.001a3.505 3.505 0 0 1-.278.944 7.652 7.652 0 0 1-5.016-4.553Zm9.17 4.552a3.493 3.493 0 0 1-.278-.943h-.001c-.375-2.492 1.925-4.549 4.31-3.942.252.063.566.169.985.333a7.652 7.652 0 0 1-5.016 4.552Z"/></svg>