<svg xmlns="http://www.w3.org/2000/svg" viewBox="0 0 512 512"><path fill="#FF905E" d="M320 0H192v41.3c-14.9 4.4-29.1 10.4-42.6 17.6l-29.2-29.2-90.5 90.5 29.2 29.2c-7.3 13.4-13.2 27.7-17.6 42.6H0v128h41.3c4.4 14.9 10.4 29.1 17.6 42.6l-29.2 29.2 90.5 90.5 29.2-29.2c13.4 7.3 27.7 13.2 42.6 17.6V512h128v-41.3c14.9-4.4 29.1-10.4 42.6-17.6l29.2 29.2 90.5-90.5-29.2-29.2c7.3-13.4 13.2-27.7 17.6-42.6H512V192h-41.3c-4.4-14.9-10.4-29.1-17.6-42.6l29.2-29.2-90.5-90.5-29.2 29.2c-13.4-7.3-27.7-13.2-42.6-17.6V0zm-64 128a128 128 0 1 1 0 256 128 128 0 1 1 0-256zm0 80a24 24 0 1 0 0-48 24 24 0 1 0 0 48zm-61.1 2.9a24 24 0 1 0-14.8 45.7 24 24 0 1 0 14.8-45.7zm106.7 30.2a24 24 0 1 0 45.7-14.8 24 24 0 1 0-45.7 14.8zm-22.7 87.2a24 24 0 1 0 38.8-28.2 24 24 0 1 0-38.8 28.2zm-51.1-33.5a24 24 0 1 0-28.2 38.8 24 24 0 1 0 28.2-38.8z"/></svg>