<svg xmlns="http://www.w3.org/2000/svg" width="48" height="48" fill="none"><circle cx="24" cy="24" r="24" fill="#3B3C98"/><path fill="#fff" d="M19.82 33.01c8.49 0 13.134-7.034 13.134-13.134 0-.2-.005-.399-.013-.597a9.397 9.397 0 0 0 2.302-2.39 9.208 9.208 0 0 1-2.65.727 4.633 4.633 0 0 0 2.03-2.553 9.258 9.258 0 0 1-2.932 1.12 4.617 4.617 0 0 0-7.867 4.21 13.106 13.106 0 0 1-9.515-4.823 4.605 4.605 0 0 0-.625 2.32c0 1.601.815 3.015 2.054 3.843a4.58 4.58 0 0 1-2.09-.578l-.001.06a4.617 4.617 0 0 0 3.704 4.524 4.63 4.63 0 0 1-2.085.08 4.621 4.621 0 0 0 4.312 3.206A9.262 9.262 0 0 1 13.844 31c-.372 0-.74-.021-1.1-.064a13.067 13.067 0 0 0 7.075 2.074"/></svg>